# xmcd
#
# Track frame offsets:
# 150
# 17290
# 34390
# 53330
# 75732
# 97977
# 119370
# 135980
# 155697
# 174235
# 189032
# 209039
# 227009
# 243274
# 264189
# 283477
# 303477
#
# Disc length: 4304 seconds
#
#
# Revision: 0
# Processed by: cddbd v1.4PL0 Copyright (c) Steve Scherf et al.
# Submitted via: FreeRIP 2.51 
#
DISCID=d610ce11
DTITLE=蔡依林 - cyl
DYEAR=2003
DGENRE=Acid
TTITLE0=说爱你
TTITLE1=看我72变
TTITLE2=假面的告白
TTITLE3=奴隶船
TTITLE4=布拉格广场
TTITLE5=做一天的你
TTITLE6=PROVE IT
TTITLE7=爆米花的味道
TTITLE8=马甲上的绳索
TTITLE9=好东西
TTITLE10=我知道你很难过
TTITLE11=情不自禁
TTITLE12=DON‘T STOP
TTITLE13=你快乐吗
TTITLE14=猜想
TTITLE15=爱上一条街
TTITLE16=SHOW YOUR LOVE
EXTD=
EXTT0=
EXTT1=
EXTT2=
EXTT3=
EXTT4=
EXTT5=
EXTT6=
EXTT7=
EXTT8=
EXTT9=
EXTT10=
EXTT11=
EXTT12=
EXTT13=
EXTT14=
EXTT15=
EXTT16=
PLAYORDER=
